<svg width="130.969mm" height="98.23mm" viewBox="0 0 130.969 98.23" xmlns="http://www.w3.org/2000/svg"><g id="svgGroup" stroke-linecap="round" fill-rule="evenodd" font-size="9pt" stroke="#000" stroke-width="0.25mm" fill="none" style="stroke:#000;stroke-width:0.25mm;fill:none"><path d="M 117.18 73.637 L 130.969 85.207 L 120.042 98.23 L 106.253 86.659 L 117.18 73.637 Z M 84.787 18.997 L 102.785 19.311 L 102.488 36.309 L 84.491 35.995 L 84.787 18.997 Z M 85.119 0 L 103.116 0.314 L 102.819 17.312 L 84.822 16.997 L 85.119 0 Z M 84.456 37.994 L 102.453 38.308 L 102.156 55.306 L 84.159 54.992 L 84.456 37.994 Z M 93.756 63.584 L 110.67 69.741 L 104.856 85.716 L 87.942 79.559 L 93.756 63.584 Z M 24.201 44.164 L 42.191 43.536 L 42.784 60.526 L 24.795 61.154 L 24.201 44.164 Z M 23.538 25.176 L 41.527 24.548 L 42.121 41.537 L 24.132 42.165 L 23.538 25.176 Z M 22.875 6.187 L 40.864 5.559 L 41.458 22.549 L 23.469 23.177 L 22.875 6.187 Z M 44.306 38.15 L 62.306 38.15 L 62.306 55.15 L 44.306 55.15 L 44.306 38.15 Z M 44.306 19.15 L 62.306 19.15 L 62.306 36.15 L 44.306 36.15 L 44.306 19.15 Z M 44.306 0.15 L 62.306 0.15 L 62.306 17.15 L 44.306 17.15 L 44.306 0.15 Z M 64.306 43.15 L 82.306 43.15 L 82.306 60.15 L 64.306 60.15 L 64.306 43.15 Z M 64.306 24.15 L 82.306 24.15 L 82.306 41.15 L 64.306 41.15 L 64.306 24.15 Z M 64.306 5.15 L 82.306 5.15 L 82.306 22.15 L 64.306 22.15 L 64.306 5.15 Z M 68.306 62.15 L 86.306 62.15 L 86.306 79.15 L 68.306 79.15 L 68.306 62.15 Z M 0 11.12 L 17.901 9.239 L 19.678 26.145 L 1.777 28.027 L 0 11.12 Z M 3.972 48.912 L 21.873 47.03 L 23.65 63.937 L 5.749 65.819 L 3.972 48.912 Z M 1.986 30.016 L 19.887 28.134 L 21.664 45.041 L 3.763 46.923 L 1.986 30.016 Z" vector-effect="non-scaling-stroke"/></g></svg>