<?xml version="1.0" encoding="UTF-8" standalone="no"?>
<svg
   version="1.0"
   width="256pt"
   height="256pt"
   viewBox="0 0 256 256"
   preserveAspectRatio="xMidYMid"
   id="svg2"
   xmlns:xlink="http://www.w3.org/1999/xlink"
   xmlns="http://www.w3.org/2000/svg"
   xmlns:svg="http://www.w3.org/2000/svg">
  <defs
     id="defs2">
    <linearGradient
       id="linearGradient2-1">
      <stop
         style="stop-color:#ee99a0;stop-opacity:1;"
         offset="0"
         id="stop12" />
      <stop
         style="stop-color:#f5a97f;stop-opacity:1;"
         offset="0.16895893"
         id="stop13" />
      <stop
         style="stop-color:#eed49f;stop-opacity:1;"
         offset="0.34733251"
         id="stop14" />
      <stop
         style="stop-color:#a6da95;stop-opacity:1;"
         offset="0.53250951"
         id="stop15" />
      <stop
         style="stop-color:#8bd5ca;stop-opacity:1;"
         offset="0.70686376"
         id="stop16" />
      <stop
         style="stop-color:#7dc4e4;stop-opacity:1;"
         offset="0.82127291"
         id="stop17" />
      <stop
         style="stop-color:#b7bdf8;stop-opacity:1;"
         offset="1"
         id="stop19" />
    </linearGradient>
    <linearGradient
       xlink:href="#linearGradient2-1"
       id="linearGradient3"
       x1="374.1524"
       y1="2107.8047"
       x2="1928.1554"
       y2="553.80164"
       gradientUnits="userSpaceOnUse" />
    <linearGradient
       xlink:href="#linearGradient2-1"
       id="linearGradient20"
       gradientUnits="userSpaceOnUse"
       x1="374.1524"
       y1="2107.8047"
       x2="1928.1554"
       y2="553.80164" />
    <linearGradient
       xlink:href="#linearGradient2-1"
       id="linearGradient21"
       gradientUnits="userSpaceOnUse"
       x1="374.1524"
       y1="2107.8047"
       x2="1928.1554"
       y2="553.80164" />
  </defs>
  <metadata
     id="metadata1">
Created by potrace 1.10, written by Peter Selinger 2001-2011
</metadata>
  <g
     transform="matrix(0.08927458,0,0,-0.09142225,28.334952,252.04606)"
     fill="#000000"
     stroke="none"
     id="g2"
     style="mix-blend-mode:hue;fill:url(#linearGradient3)">
    <path
       d="m 593,2604 c -13,-34 6,-338 27,-422 11,-46 20,-85 20,-87 0,-1 -37,-15 -82,-29 -105,-34 -174,-74 -249,-143 -59,-55 -77,-83 -40,-63 42,22 271,67 271,53 0,-5 -26,-19 -56,-32 C 363,1828 233,1697 162,1555 121,1472 83,1346 64,1232 47,1129 49,846 67,785 c 9,-27 10,-24 27,45 29,119 101,259 122,237 4,-4 -3,-54 -15,-111 -30,-141 -36,-261 -21,-397 9,-90 52,-269 63,-269 1,0 3,84 3,188 2,173 4,196 32,303 59,230 144,395 273,531 l 76,80 -40,-6 c -55,-9 -184,-60 -240,-96 -75,-48 -87,-37 -38,34 107,155 416,341 604,363 26,3 44,10 40,14 -13,13 -154,31 -205,27 -26,-3 -48,-2 -48,2 0,13 117,60 177,71 120,23 281,-12 405,-87 79,-48 186,-149 259,-245 88,-116 207,-197 360,-248 72,-24 202,-42 243,-34 30,6 35,-11 9,-26 -29,-15 -156,-31 -245,-31 -122,0 -228,16 -407,60 -97,25 -182,40 -219,40 -60,0 -60,0 -119,-59 C 984,992 950,712 1077,467 1141,343 1350,156 1519,70 l 45,-22 -45,52 c -118,139 -189,243 -189,278 0,19 4,22 21,17 157,-50 306,-70 454,-62 90,5 220,25 212,33 -1,2 -52,10 -112,19 -260,39 -516,163 -643,312 -66,77 -112,175 -112,239 0,63 20,117 57,157 41,42 57,36 49,-18 -4,-25 -4,-54 -1,-65 6,-18 9,-16 37,16 69,79 146,92 438,74 237,-14 344,-6 430,31 48,21 90,56 90,73 -1,6 -80,67 -177,136 l -176,125 -13,63 c -46,224 -320,486 -605,577 -64,20 -69,24 -129,103 -113,150 -325,315 -503,391 -43,18 -48,19 -54,5 z"
       id="path1"
       style="fill:url(#linearGradient20)" />
    <path
       d="m 1407,2435 c -43,-55 -78,-140 -84,-203 l -5,-57 63,-30 c 35,-17 100,-53 146,-82 l 83,-52 v 53 c 0,116 -62,281 -136,364 l -39,43 z"
       id="path2"
       style="fill:url(#linearGradient21)" />
  </g>
</svg>
